<svg width="250" height="192" fill="none" xmlns="http://www.w3.org/2000/svg"><g clip-path="url(#clip0)"><path d="M148.139 143.368c46.851-21.937 75.466-59.721 63.914-84.394-11.553-24.672-58.898-26.89-105.748-4.954-46.851 21.937-75.466 59.721-63.914 84.394 11.552 24.672 58.897 26.89 105.748 4.954z" stroke="#C9BDFF" stroke-miterlimit="10"/><path d="M140.559 127.18c29.876-13.989 48.124-38.082 40.758-53.814-7.366-15.733-37.557-17.146-67.433-3.157-29.875 13.988-48.123 38.081-40.757 53.813 7.366 15.733 37.557 17.146 67.432 3.158z" fill="#1D1A37"/><path d="M139.874 73.24l-5.442 12.984a.674.674 0 00.248.909c.1.06.213.093.329.097l14.734 2.93c1.54.307.192 2.24-1.75 2.512l-18.601 2.624a3.634 3.634 0 00-1.951.972l-12.371 12.607c-1.322 1.348-3.789 1.321-3.238 0l5.25-12.669a.687.687 0 00-.017-.66.69.69 0 00-.569-.337l-14.725-2.931c-1.54-.306-.193-2.24 1.75-2.511l18.592-2.625a3.57 3.57 0 001.96-.971l12.546-12.958c1.339-1.356 3.823-1.356 3.255.027z" fill="#31C1FE"/><path d="M144.327 29.345a4.471 4.471 0 100-8.942 4.471 4.471 0 000 8.942z" stroke="#31C1FE" stroke-miterlimit="10"/><path d="M65.68 190.917c-60.474-.543-82.942-39.118-50.176-86.171 32.765-47.054 108.35-84.754 168.859-84.212" stroke="#4660F6" stroke-miterlimit="10"/><path d="M125.367 187.802a6.85 6.85 0 100-13.701 6.85 6.85 0 000 13.701z" fill="#C9BDFF"/><path d="M20.15 77.606a2.091 2.091 0 100-4.183 2.091 2.091 0 000 4.183z" fill="#31C1FE"/><path d="M217.112 109.479l-1.689-2.389a.259.259 0 00-.28-.113l-2.87.56a.29.29 0 01-.311-.173.289.289 0 01.093-.344l2.379-1.688a.278.278 0 00.123-.28l-.534-2.809a.278.278 0 01.161-.325.279.279 0 01.347.107l1.662 2.327a.296.296 0 00.28.114l2.878-.56a.286.286 0 01.193.02.281.281 0 01.026.487l-2.388 1.689a.26.26 0 00-.114.288l.56 2.87a.287.287 0 01-.173.312.293.293 0 01-.187.013.284.284 0 01-.156-.106z" fill="#31BEFB"/><path d="M209.15 11.392l-.63-4.086a.375.375 0 00-.289-.324L204.25 5.87a.406.406 0 01-.223-.153.406.406 0 01.028-.508.404.404 0 01.239-.127l4.068-.595a.406.406 0 00.324-.289l1.111-3.884a.403.403 0 01.779 0l.63 3.99a.39.39 0 00.289.324l3.981 1.12a.392.392 0 010 .779l-4.086.62a.416.416 0 00-.333.289l-1.128 4.05a.404.404 0 01-.779-.096zM23.142 130.372l-1.645 2.292a.281.281 0 000 .298l1.417 2.441a.272.272 0 01-.394.359l-2.266-1.645a.28.28 0 00-.297 0l-2.389 1.373a.277.277 0 01-.177.023.281.281 0 01-.182-.425l1.593-2.249a.259.259 0 000-.297l-1.417-2.441a.272.272 0 01.04-.36.268.268 0 01.181-.068c.067 0 .131.024.181.069l2.292 1.645a.263.263 0 00.298 0l2.44-1.417a.268.268 0 01.31.083.272.272 0 01.015.319z" fill="#C9BDFF"/><path d="M52.268 175.185l.437 2.039a.2.2 0 00.149.149l2.038.437a.2.2 0 01.202.201.202.202 0 01-.202.202l-2.038.437a.2.2 0 00-.149.149l-.437 1.986a.2.2 0 01-.344.142.2.2 0 01-.059-.142l-.437-1.986a.17.17 0 00-.05-.099.172.172 0 00-.099-.05l-2.039-.437a.202.202 0 010-.403l2.04-.437a.179.179 0 00.148-.149l.437-2.039a.202.202 0 01.344-.142.201.201 0 01.059.142z" fill="#C7C6C9"/><path d="M213.402 84.719a3.867 3.867 0 100-7.734 3.867 3.867 0 000 7.734z" fill="#4660F6"/><path d="M7.227 80.851a2.668 2.668 0 100-5.337 2.668 2.668 0 000 5.337z" stroke="#31C1FE" stroke-miterlimit="10"/><path d="M184.328 20.534c60.475.534 82.943 39.11 50.177 86.163s-108.35 84.753-168.86 84.22" stroke="#4660F6" stroke-miterlimit="10"/></g><defs><clipPath id="clip0"><path fill="#fff" d="M0 0h250v191.363H0z"/></clipPath></defs></svg>